HIERARCHY
ROOT Hips
{
	OFFSET 0.000000 71.427986 0.000000
	CHANNELS 6 Xposition Yposition Zposition Xrotation Yrotation Zrotation
	JOINT Pelvis
	{
		OFFSET 0.000000 0.000000 0.000000
		CHANNELS 3 Xrotation Yrotation Zrotation
		JOINT LeftUpLeg
		{
			OFFSET 6.797100 -2.508499 -1.318700
			CHANNELS 3 Xrotation Yrotation Zrotation
			JOINT LeftLeg
			{
				OFFSET 0.069008 -29.241863 0.690200
				CHANNELS 3 Xrotation Yrotation Zrotation
				JOINT LeftFoot
				{
					OFFSET -0.069008 -29.568123 -0.266800
					CHANNELS 3 Xrotation Yrotation Zrotation
					JOINT LeftToeBase
					{
						OFFSET 3.145500 -8.631000 16.059900
						CHANNELS 3 Xrotation Yrotation Zrotation
						End Site
						{
							OFFSET 0.000000 18.501587 0.000000
						}
					}
				}
			}
			JOINT Left_ShortSleeve
			{
				OFFSET 0.265923 -10.480953 1.153800
				CHANNELS 3 Xrotation Yrotation Zrotation
				End Site
				{
					OFFSET 1.725763 19.823879 0.000000
				}
			}
		}
		JOINT RightUpLeg
		{
			OFFSET -6.797100 -2.508499 -1.318700
			CHANNELS 3 Xrotation Yrotation Zrotation
			JOINT RightLeg
			{
				OFFSET -0.082453 -29.241932 0.688000
				CHANNELS 3 Xrotation Yrotation Zrotation
				JOINT RightFoot
				{
					OFFSET 0.082453 -29.568058 -0.264600
					CHANNELS 3 Xrotation Yrotation Zrotation
					JOINT RightToeBase
					{
						OFFSET -3.115300 -8.682800 16.113400
						CHANNELS 3 Xrotation Yrotation Zrotation
						End Site
						{
							OFFSET 0.000000 18.567114 0.000000
						}
					}
				}
			}
			JOINT Right_ShortSleeve
			{
				OFFSET -0.265923 -10.480953 1.153800
				CHANNELS 3 Xrotation Yrotation Zrotation
				End Site
				{
					OFFSET -1.725766 19.823910 0.000000
				}
			}
		}
	}
	JOINT Spine
	{
		OFFSET 0.000000 13.368103 0.470500
		CHANNELS 3 Xrotation Yrotation Zrotation
		JOINT Spine1
		{
			OFFSET 0.147000 13.837402 0.538800
			CHANNELS 3 Xrotation Yrotation Zrotation
			JOINT Spine2
			{
				OFFSET 0.168000 16.242897 -1.435500
				CHANNELS 3 Xrotation Yrotation Zrotation
				JOINT Neck
				{
					OFFSET 0.217200 18.631500 -1.679100
					CHANNELS 3 Xrotation Yrotation Zrotation
					JOINT Head
					{
						OFFSET 0.000000 6.599396 1.385900
						CHANNELS 3 Xrotation Yrotation Zrotation
						JOINT Hat
						{
							OFFSET -0.532200 27.220596 -10.096100
							CHANNELS 3 Xrotation Yrotation Zrotation
							End Site
							{
								OFFSET 0.000000 22.029861 0.000000
							}
						}
						JOINT HairD
						{
							OFFSET -10.777400 17.437393 -1.325900
							CHANNELS 3 Xrotation Yrotation Zrotation
							JOINT HairD1
							{
								OFFSET -3.290299 -11.051193 1.062200
								CHANNELS 3 Xrotation Yrotation Zrotation
								End Site
								{
									OFFSET 0.000000 11.579437 0.000000
								}
							}
						}
						JOINT HairB
						{
							OFFSET -10.777400 17.437393 1.467900
							CHANNELS 3 Xrotation Yrotation Zrotation
							JOINT HairB1
							{
								OFFSET -1.561200 -12.956299 3.590200
								CHANNELS 3 Xrotation Yrotation Zrotation
								End Site
								{
									OFFSET 0.000000 13.534866 0.000000
								}
							}
						}
						JOINT HairA
						{
							OFFSET 9.713100 17.437393 1.467900
							CHANNELS 3 Xrotation Yrotation Zrotation
							JOINT HairA1
							{
								OFFSET 1.561200 -12.956299 3.590200
								CHANNELS 3 Xrotation Yrotation Zrotation
								End Site
								{
									OFFSET 0.000000 13.534866 0.000000
								}
							}
						}
						JOINT HairC
						{
							OFFSET 9.713100 17.437393 -1.325900
							CHANNELS 3 Xrotation Yrotation Zrotation
							JOINT HairC1
							{
								OFFSET 3.290300 -11.051193 1.062200
								CHANNELS 3 Xrotation Yrotation Zrotation
								End Site
								{
									OFFSET 0.000000 11.579437 0.000000
								}
							}
						}
					}
				}
				JOINT LeftShoulder
				{
					OFFSET 5.101800 15.108002 -2.763700
					CHANNELS 3 Xrotation Yrotation Zrotation
					JOINT LeftArm
					{
						OFFSET 9.825497 2.506317 -1.597400
						CHANNELS 3 Xrotation Yrotation Zrotation
						JOINT LeftForeArm
						{
							OFFSET 21.966244 0.000000 0.000000
							CHANNELS 3 Xrotation Yrotation Zrotation
							JOINT LeftHand
							{
								OFFSET 33.879036 0.000000 0.000000
								CHANNELS 3 Xrotation Yrotation Zrotation
								JOINT LeftHandThumb1
								{
									OFFSET 6.715286 -2.359680 3.363841
									CHANNELS 3 Xrotation Yrotation Zrotation
									JOINT LeftHandThumb2
									{
										OFFSET 2.507072 -1.447464 1.447461
										CHANNELS 3 Xrotation Yrotation Zrotation
										JOINT LeftHandThumb3
										{
											OFFSET 2.898338 -1.673355 1.673357
											CHANNELS 3 Xrotation Yrotation Zrotation
											End Site
											{
												OFFSET -0.295959 3.727692 -0.131651
											}
										}
									}
								}
								JOINT LeftHandIndex1
								{
									OFFSET 14.190811 -0.254547 3.840278
									CHANNELS 3 Xrotation Yrotation Zrotation
									JOINT LeftHandIndex2
									{
										OFFSET 3.551727 0.000000 -0.000000
										CHANNELS 3 Xrotation Yrotation Zrotation
										JOINT LeftHandIndex3
										{
											OFFSET 2.894196 0.000000 0.000000
											CHANNELS 3 Xrotation Yrotation Zrotation
											End Site
											{
												OFFSET -1.000603 2.690872 0.366626
											}
										}
									}
								}
								JOINT LeftHandMiddle1
								{
									OFFSET 13.776489 0.000000 0.000000
									CHANNELS 3 Xrotation Yrotation Zrotation
									JOINT LeftHandMiddle2
									{
										OFFSET 3.438232 0.000000 0.000000
										CHANNELS 3 Xrotation Yrotation Zrotation
										JOINT LeftHandMiddle3
										{
											OFFSET 3.691551 0.000000 0.000000
											CHANNELS 3 Xrotation Yrotation Zrotation
											End Site
											{
												OFFSET -1.082298 3.499527 0.457670
											}
										}
									}
								}
								JOINT LeftHandRing1
								{
									OFFSET 13.966164 -0.268127 -3.067488
									CHANNELS 3 Xrotation Yrotation Zrotation
									JOINT LeftHandRing2
									{
										OFFSET 3.162567 0.000000 0.000000
										CHANNELS 3 Xrotation Yrotation Zrotation
										JOINT LeftHandRing3
										{
											OFFSET 3.324348 0.000000 0.000000
											CHANNELS 3 Xrotation Yrotation Zrotation
											End Site
											{
												OFFSET -0.861900 3.184998 0.405154
											}
										}
									}
								}
								JOINT LeftHandPinky1
								{
									OFFSET 13.131393 -0.168503 -5.746925
									CHANNELS 3 Xrotation Yrotation Zrotation
									JOINT LeftHandPinky2
									{
										OFFSET 2.849182 0.000000 0.000000
										CHANNELS 3 Xrotation Yrotation Zrotation
										JOINT LeftHandPinky3
										{
											OFFSET 2.805038 0.000000 0.000000
											CHANNELS 3 Xrotation Yrotation Zrotation
											End Site
											{
												OFFSET -0.882500 2.642609 0.325652
											}
										}
									}
								}
							}
							JOINT Left_Sleeve
							{
								OFFSET 6.592125 -0.646545 0.805568
								CHANNELS 3 Xrotation Yrotation Zrotation
								End Site
								{
									OFFSET -0.000179 20.275787 -0.000000
								}
							}
						}
					}
				}
				JOINT RightShoulder
				{
					OFFSET -5.731700 15.108002 -2.763700
					CHANNELS 3 Xrotation Yrotation Zrotation
					JOINT RightArm
					{
						OFFSET -9.825497 2.506317 -1.597400
						CHANNELS 3 Xrotation Yrotation Zrotation
						JOINT RightForeArm
						{
							OFFSET -21.966242 0.000000 0.000000
							CHANNELS 3 Xrotation Yrotation Zrotation
							JOINT RightHand
							{
								OFFSET -33.879032 0.000000 0.000000
								CHANNELS 3 Xrotation Yrotation Zrotation
								JOINT RightHandThumb1
								{
									OFFSET -6.715286 -2.359680 3.363841
									CHANNELS 3 Xrotation Yrotation Zrotation
									JOINT RightHandThumb2
									{
										OFFSET -2.507072 -1.447464 1.447461
										CHANNELS 3 Xrotation Yrotation Zrotation
										JOINT RightHandThumb3
										{
											OFFSET -2.898338 -1.673355 1.673357
											CHANNELS 3 Xrotation Yrotation Zrotation
											End Site
											{
												OFFSET 0.295959 3.727692 -0.131651
											}
										}
									}
								}
								JOINT RightHandIndex1
								{
									OFFSET -14.190811 -0.254547 3.840278
									CHANNELS 3 Xrotation Yrotation Zrotation
									JOINT RightHandIndex2
									{
										OFFSET -3.551727 0.000000 -0.000000
										CHANNELS 3 Xrotation Yrotation Zrotation
										JOINT RightHandIndex3
										{
											OFFSET -2.894196 0.000000 0.000000
											CHANNELS 3 Xrotation Yrotation Zrotation
											End Site
											{
												OFFSET 1.000603 2.690872 0.366626
											}
										}
									}
								}
								JOINT RightHandMiddle1
								{
									OFFSET -13.776489 0.000000 0.000000
									CHANNELS 3 Xrotation Yrotation Zrotation
									JOINT RightHandMiddle2
									{
										OFFSET -3.438232 0.000000 0.000000
										CHANNELS 3 Xrotation Yrotation Zrotation
										JOINT RightHandMiddle3
										{
											OFFSET -3.691551 0.000000 0.000000
											CHANNELS 3 Xrotation Yrotation Zrotation
											End Site
											{
												OFFSET 1.082298 3.499527 0.457670
											}
										}
									}
								}
								JOINT RightHandRing1
								{
									OFFSET -13.966164 -0.268127 -3.067488
									CHANNELS 3 Xrotation Yrotation Zrotation
									JOINT RightHandRing2
									{
										OFFSET -3.162567 0.000000 0.000000
										CHANNELS 3 Xrotation Yrotation Zrotation
										JOINT RightHandRing3
										{
											OFFSET -3.324348 0.000000 0.000000
											CHANNELS 3 Xrotation Yrotation Zrotation
											End Site
											{
												OFFSET 0.861900 3.184998 0.405154
											}
										}
									}
								}
								JOINT RightHandPinky1
								{
									OFFSET -13.131393 -0.168503 -5.746925
									CHANNELS 3 Xrotation Yrotation Zrotation
									JOINT RightHandPinky2
									{
										OFFSET -2.849182 0.000000 0.000000
										CHANNELS 3 Xrotation Yrotation Zrotation
										JOINT RightHandPinky3
										{
											OFFSET -2.805038 0.000000 0.000000
											CHANNELS 3 Xrotation Yrotation Zrotation
											End Site
											{
												OFFSET 0.882500 2.642609 0.325652
											}
										}
									}
								}
							}
							JOINT Right_Sleeve
							{
								OFFSET -6.592125 -0.646545 0.805568
								CHANNELS 3 Xrotation Yrotation Zrotation
								End Site
								{
									OFFSET 0.000179 20.275787 -0.000000
								}
							}
						}
					}
				}
				JOINT Bind_Right_JacketString
				{
					OFFSET -3.534800 11.969597 7.200700
					CHANNELS 3 Xrotation Yrotation Zrotation
					JOINT Bind_Right_JacketString1
					{
						OFFSET -0.319900 -6.102600 2.794100
						CHANNELS 3 Xrotation Yrotation Zrotation
						End Site
						{
							OFFSET 0.000000 6.719452 0.000000
						}
					}
				}
				JOINT Bind_Left_JacketString
				{
					OFFSET 2.904800 11.969597 7.200700
					CHANNELS 3 Xrotation Yrotation Zrotation
					JOINT Bind_Left_JacketString1
					{
						OFFSET 0.364800 -5.904503 3.186800
						CHANNELS 3 Xrotation Yrotation Zrotation
						End Site
						{
							OFFSET 0.000000 6.719513 0.000000
						}
					}
				}
				JOINT HairE
				{
					OFFSET 5.915200 17.612701 -11.592200
					CHANNELS 3 Xrotation Yrotation Zrotation
					JOINT HairE1
					{
						OFFSET 0.289200 -7.171898 -1.284500
						CHANNELS 3 Xrotation Yrotation Zrotation
						End Site
						{
							OFFSET 0.000000 7.291756 0.000000
						}
					}
				}
				JOINT HairF
				{
					OFFSET -0.864800 17.612701 -11.592200
					CHANNELS 3 Xrotation Yrotation Zrotation
					JOINT HairF1
					{
						OFFSET 0.000000 -14.087097 -2.127501
						CHANNELS 3 Xrotation Yrotation Zrotation
						End Site
						{
							OFFSET 0.000000 14.246841 0.000000
						}
					}
				}
				JOINT HairG
				{
					OFFSET -8.087700 17.612701 -11.592200
					CHANNELS 3 Xrotation Yrotation Zrotation
					JOINT HairG1
					{
						OFFSET -0.293600 -6.081398 -0.910100
						CHANNELS 3 Xrotation Yrotation Zrotation
						End Site
						{
							OFFSET 0.000000 6.156120 0.000000
						}
					}
				}
			}
		}
	}
	JOINT Pouch
	{
		OFFSET 0.000000 4.394501 10.847300
		CHANNELS 3 Xrotation Yrotation Zrotation
		End Site
		{
			OFFSET 0.000000 21.880577 0.000000
		}
	}
	JOINT Bag
	{
		OFFSET -13.229000 4.813004 -0.593300
		CHANNELS 3 Xrotation Yrotation Zrotation
		End Site
		{
			OFFSET 0.000000 21.880577 0.000000
		}
	}
	JOINT OccupyGuyFacialAnim_Joint
	{
		OFFSET 1.000000 -70.206398 -1.655000
		CHANNELS 3 Xrotation Yrotation Zrotation
		End Site
		{
			OFFSET 0.000000 21.880577 0.000000
		}
	}
}
MOTION
Frames: 4
Frame Time: 0.033333
-72.513138 64.180313 -2.825169 17.054209 24.675149 -13.533334 0.000000 0.000002 -0.000000 -50.677951 -0.195407 22.378457 39.607246 1.101683 1.982359 -3.243520 0.975653 -14.444737 -0.000000 -0.000000 -0.000000 0.000001 0.000003 0.000001 -34.131231 -4.487184 -8.050336 45.169001 10.085946 1.472660 -27.278123 -0.150797 6.336367 -0.000000 0.000000 -0.000000 0.000001 0.000000 0.000001 31.100983 -2.941727 -1.276876 -1.384245 -0.164536 -1.748144 -1.390077 -0.273826 -1.730977 -3.808295 -1.794388 3.007639 -32.711118 -7.684283 2.426547 0.000000 -0.000000 -0.000001 0.000000 -0.000000 -0.000001 0.000000 -0.000000 -0.000001 0.000000 -0.000000 -0.000000 0.000000 0.000001 -0.000000 0.000000 -0.000000 -0.000000 0.000000 0.000001 -0.000000 0.000000 -0.000000 -0.000001 0.000000 -0.000000 -0.000001 2.731608 -7.276452 -3.529854 0.027452 -10.918611 -39.998489 -0.000022 -72.103329 -0.000023 -5.672891 11.009566 19.465592 -8.939555 9.663410 5.573453 -2.472357 14.610792 -0.795029 0.000002 0.000001 -0.000003 0.139681 1.382602 -11.536733 0.729678 3.089724 -26.569554 0.000002 -0.000001 -0.000004 0.180499 1.572589 -12.283546 0.731410 3.093181 -26.601632 0.000000 0.000001 0.000001 0.356775 2.194898 -17.525968 1.031981 3.630905 -31.723521 0.000001 0.000001 0.000001 1.915372 6.403525 -20.091592 1.125757 -0.305358 -33.408074 -0.000001 -0.000000 0.000001 0.000001 -0.000001 0.000000 3.978326 3.880222 6.861316 -0.570239 31.618349 40.260646 -0.000006 51.586387 -0.000003 13.803811 -19.826835 -2.097345 -5.422201 -4.284200 -8.645212 0.968951 -9.962085 -1.832180 0.000000 0.000001 0.000003 0.091118 -1.125988 9.794999 0.856572 -3.348411 28.691364 0.000001 0.000001 -0.000001 0.102652 -1.192942 9.917675 0.856577 -3.348411 28.691364 0.000002 -0.000001 -0.000001 0.252045 -1.858767 15.565834 1.275488 -4.018777 35.204482 0.000001 0.000001 -0.000004 0.395816 -2.317547 19.903277 1.541255 -4.370239 38.836678 0.000000 0.000003 0.000001 0.000001 0.000000 -0.000001 0.000001 0.000000 -0.000001 0.000003 -0.000002 -0.000001 0.000001 0.000000 -0.000000 0.000001 0.000000 -0.000000 0.000001 0.000000 -0.000001 0.000003 -0.000002 -0.000001 0.000001 0.000000 -0.000000 0.000001 0.000000 -0.000000 0.000001 0.000000 -0.000001 0.000003 -0.000002 -0.000001 0.000000 0.000002 -0.000000 0.000000 0.000002 -0.000000 0.000000 0.000002 -0.000000 
-72.696648 64.563271 -2.449143 17.664818 26.392983 -14.963604 -0.000001 -0.000000 -0.000001 -51.846378 0.867414 22.610931 39.266426 6.872767 0.320557 -1.396821 0.662863 -11.782197 0.000000 -0.000000 0.000000 -0.000001 0.000001 -0.000001 -32.390004 -5.011220 -7.131424 42.889022 9.743692 2.305252 -26.805238 -1.585748 5.632668 0.000000 -0.000000 -0.000000 -0.000002 -0.000002 -0.000001 30.901091 -3.151763 -1.334919 -1.450705 -0.176519 -1.865146 -1.457400 -0.292609 -1.846615 -3.769343 -2.040518 3.443153 -33.043772 -8.819202 2.861365 0.000000 0.000002 -0.000001 0.000000 0.000002 -0.000001 0.000000 0.000002 -0.000001 0.000000 0.000002 -0.000000 0.000000 -0.000001 -0.000000 0.000000 0.000002 -0.000000 0.000000 -0.000001 -0.000000 0.000000 0.000002 -0.000001 0.000000 0.000002 -0.000001 2.793493 -7.380136 -3.858691 1.293943 -7.911780 -40.833719 0.000068 -73.917653 0.000088 -10.814723 13.155334 21.716351 -8.939556 9.663409 5.573450 -2.472356 14.610791 -0.795027 0.000002 -0.000000 -0.000000 0.139676 1.382604 -11.536737 0.729678 3.089727 -26.569552 -0.000000 -0.000001 0.000001 0.180499 1.572590 -12.283549 0.731410 3.093180 -26.601625 0.000001 0.000000 0.000001 0.356776 2.194896 -17.525972 1.031982 3.630903 -31.723517 -0.000000 -0.000001 -0.000005 1.915370 6.403527 -20.091594 1.125761 -0.305356 -33.408074 -0.000000 0.000000 -0.000001 0.000000 0.000002 -0.000001 3.923451 3.830413 6.669368 1.227294 35.198502 40.191118 -0.000016 52.171669 0.000002 16.499070 -21.193756 -1.597697 -5.427922 -4.281828 -8.662889 0.968946 -9.962093 -1.832204 0.000001 0.000001 0.000004 0.090421 -1.127480 9.782900 0.856556 -3.348424 28.691354 -0.000000 -0.000000 0.000002 0.102079 -1.194423 9.905563 0.856566 -3.348415 28.691354 -0.000000 0.000000 -0.000001 0.251080 -1.860518 15.554818 1.275338 -4.018600 35.202477 -0.000000 0.000002 -0.000002 0.394491 -2.319326 19.891145 1.541240 -4.370246 38.836664 -0.000002 0.000000 -0.000001 0.000000 0.000000 -0.000003 0.000000 0.000002 -0.000001 0.000000 -0.000001 0.000001 0.000000 0.000002 -0.000000 0.000000 0.000002 -0.000000 0.000000 0.000002 -0.000001 0.000000 -0.000001 0.000001 0.000000 0.000002 -0.000000 0.000000 0.000002 -0.000000 0.000000 0.000002 -0.000001 0.000000 -0.000001 0.000001 -0.000001 -0.000000 -0.000001 -0.000001 -0.000000 -0.000001 -0.000001 -0.000000 -0.000001 
-72.693558 64.851753 -2.096055 18.026193 28.017496 -16.275487 0.000001 0.000001 -0.000000 -52.902236 1.904708 22.476588 40.312022 9.688229 -1.166280 -1.084835 4.341276 -8.954344 -0.000000 0.000000 -0.000000 0.000002 0.000000 -0.000003 -30.510195 -5.237401 -6.043206 40.968031 7.570770 2.665367 -26.490199 -1.680115 6.058908 -0.000000 -0.000002 0.000000 0.000002 -0.000001 -0.000001 30.954380 -3.081659 -1.438047 -1.564726 -0.134913 -2.071375 -1.571709 -0.264121 -2.055265 -3.891827 -2.363772 3.883138 -32.718754 -10.176781 3.165912 -0.000000 0.000000 -0.000001 -0.000000 0.000000 -0.000001 -0.000000 0.000000 -0.000000 -0.000000 0.000000 -0.000001 0.000000 -0.000002 -0.000001 -0.000000 0.000000 -0.000001 0.000000 -0.000002 -0.000001 -0.000000 0.000000 -0.000001 -0.000000 0.000000 -0.000001 2.827660 -7.449996 -3.994191 2.095176 -6.206463 -41.072171 0.000115 -75.985322 0.000108 -13.326637 14.611627 23.726819 -8.939556 9.663408 5.573454 -2.472356 14.610794 -0.795032 0.000003 0.000001 -0.000004 0.139680 1.382606 -11.536729 0.729678 3.089726 -26.569552 0.000001 -0.000000 0.000001 0.180500 1.572586 -12.283546 0.731411 3.093182 -26.601625 0.000001 0.000000 0.000001 0.356777 2.194897 -17.525963 1.031981 3.630903 -31.723521 -0.000002 0.000001 -0.000001 1.915370 6.403524 -20.091592 1.125761 -0.305355 -33.408077 0.000000 -0.000000 0.000001 0.000000 0.000004 -0.000001 3.850311 3.719343 6.496959 2.135777 39.877342 40.219856 0.000006 52.956051 -0.000013 17.339127 -20.924252 -1.604446 -5.426226 -4.273742 -8.676680 0.968948 -9.962119 -1.832189 -0.000001 -0.000002 0.000000 0.089023 -1.120918 9.773955 0.856584 -3.348402 28.691364 -0.000001 -0.000002 -0.000002 0.100959 -1.187818 9.896633 0.856563 -3.348434 28.691364 -0.000001 0.000000 -0.000002 0.249260 -1.854314 15.546735 1.275217 -4.018417 35.200835 -0.000000 0.000000 -0.000002 0.391908 -2.313424 19.882115 1.541224 -4.370256 38.836664 0.000001 0.000000 -0.000001 -0.000000 0.000000 0.000001 0.000001 -0.000001 0.000003 -0.000002 0.000002 -0.000000 0.000001 -0.000001 -0.000000 0.000001 -0.000001 -0.000000 0.000001 -0.000001 0.000003 -0.000002 0.000002 -0.000000 0.000001 -0.000001 -0.000000 0.000001 -0.000001 -0.000000 0.000001 -0.000001 0.000003 -0.000002 0.000002 -0.000000 0.000001 0.000001 -0.000000 0.000001 0.000001 -0.000000 0.000001 0.000001 -0.000000 
-72.451782 65.056396 -1.678062 18.166818 29.964877 -17.560947 0.000001 0.000001 -0.000000 -53.352254 2.567422 21.986584 42.016479 9.732675 -1.897966 -2.594098 7.438272 -6.991458 -0.000000 -0.000002 -0.000000 0.000002 0.000003 0.000002 -28.155377 -5.251947 -4.765188 39.225350 4.907950 2.574849 -26.464396 -1.911807 6.951233 0.000000 -0.000000 -0.000000 0.000000 0.000001 -0.000000 31.165176 -2.902989 -1.487480 -1.707834 -0.081117 -2.254142 -1.714667 -0.222645 -2.241453 -4.101666 -2.738631 4.308216 -31.748143 -11.606174 3.292166 0.000000 -0.000000 -0.000001 0.000000 -0.000000 -0.000001 0.000000 -0.000000 -0.000000 0.000000 -0.000000 -0.000001 -0.000000 -0.000000 -0.000001 0.000000 -0.000000 -0.000001 -0.000000 -0.000000 -0.000001 0.000000 -0.000000 -0.000001 0.000000 -0.000000 -0.000001 2.764818 -7.446616 -3.250630 1.613643 -6.436082 -42.242609 0.000087 -76.657993 0.000111 -14.032388 14.489666 24.264585 -8.939556 9.663405 5.573452 -2.472356 14.610794 -0.795026 0.000002 -0.000000 0.000000 0.139676 1.382605 -11.536735 0.729675 3.089731 -26.569550 -0.000000 0.000003 -0.000001 0.180498 1.572586 -12.283547 0.731409 3.093182 -26.601627 -0.000000 -0.000001 0.000000 0.356776 2.194897 -17.525963 1.031981 3.630903 -31.723517 -0.000000 0.000002 -0.000002 1.915371 6.403525 -20.091592 1.125761 -0.305356 -33.408071 -0.000001 -0.000001 0.000005 0.000001 -0.000002 0.000002 3.787691 3.565605 6.456361 1.715336 45.404871 40.391765 -0.000024 53.734085 0.000032 16.796492 -20.193519 -1.395717 -5.419578 -4.261679 -8.684475 0.968958 -9.962110 -1.832174 -0.000000 -0.000001 0.000002 0.087093 -1.107715 9.769521 0.856569 -3.348418 28.691360 -0.000000 -0.000002 0.000000 0.099454 -1.174542 9.892195 0.856573 -3.348418 28.691367 0.000001 -0.000001 -0.000001 0.246784 -1.841508 15.542794 1.275155 -4.018319 35.199790 -0.000001 -0.000000 -0.000002 0.388336 -2.301154 19.877476 1.541237 -4.370272 38.836674 -0.000000 0.000000 0.000002 -0.000000 0.000001 0.000001 0.000001 0.000001 0.000001 0.000001 0.000000 -0.000001 0.000001 0.000001 -0.000000 0.000001 0.000001 -0.000000 0.000001 0.000001 0.000001 0.000001 0.000000 -0.000001 0.000001 0.000001 -0.000000 0.000001 0.000001 -0.000000 0.000001 0.000001 0.000001 0.000001 0.000000 -0.000001 0.000001 0.000001 -0.000000 0.000001 0.000001 -0.000000 0.000001 0.000001 -0.000000 
